<?xml version="1.0" encoding="UTF-8" standalone="no"?>

<svg
   xmlns:svg="http://www.w3.org/2000/svg"
   xmlns="http://www.w3.org/2000/svg"
   version="1.0"
   width="110"
   height="110"
   id="svg2">
  <defs
     id="defs4" />
  <g
     transform="translate(-168.62416,-606.03067)"
     id="layer1">
    <path
       d="M 223.6573,611.03067 C 232.05132,611.03077 240.24657,613.18451 248.24311,617.4919 C 256.23949,621.79948 262.46878,627.96249 266.93098,635.98097 C 271.393,643.99959 273.62406,652.36053 273.62416,661.06381 C 273.62406,669.67882 271.42613,677.96245 267.03038,685.9147 C 262.63446,693.867 256.47144,700.04106 248.54133,704.4369 C 240.61105,708.83275 232.3164,711.03067 223.6573,711.03067 C 214.9981,711.03067 206.70342,708.83275 198.77326,704.4369 C 190.84304,700.04106 184.66898,693.867 180.25106,685.9147 C 175.83313,677.96245 173.62415,669.67882 173.62415,661.06381 C 173.62415,652.36053 175.86626,643.99959 180.35047,635.98097 C 184.83465,627.96249 191.07498,621.79948 199.07147,617.4919 C 207.06791,613.18451 215.26317,611.03077 223.6573,611.03067 L 223.6573,611.03067 z M 223.6573,619.3143 C 216.63272,619.31439 209.79597,621.1147 203.14702,624.71523 C 196.49801,628.31593 191.29588,633.46282 187.54065,640.15592 C 183.78541,646.84916 181.90777,653.81844 181.90778,661.06381 C 181.90777,668.26508 183.75226,675.1681 187.44125,681.77288 C 191.13021,688.37772 196.28815,693.52461 202.91507,697.21357 C 209.54194,700.90256 216.45602,702.74705 223.6573,702.74704 C 230.85848,702.74705 237.77253,700.90256 244.3995,697.21357 C 251.02634,693.52461 256.17323,688.37772 259.84019,681.77288 C 263.50699,675.1681 265.34044,668.26508 265.34052,661.06381 C 265.34044,653.81844 263.47385,646.84916 259.74079,640.15592 C 256.00755,633.46282 250.80544,628.31593 244.13444,624.71523 C 237.46328,621.1147 230.63757,619.31439 223.6573,619.3143 L 223.6573,619.3143 z M 205.69838,688.698 L 205.69838,634.88753 L 224.18745,634.88753 C 230.50503,634.8876 235.07759,635.38462 237.90514,636.37858 C 240.73255,637.37269 242.98569,639.10673 244.66458,641.5807 C 246.34332,644.05481 247.18274,646.68348 247.18281,649.46672 C 247.18274,653.39874 245.96781,656.71219 243.53801,659.40708 C 241.10807,662.10207 238.24746,663.84715 234.95617,664.64233 C 231.66474,665.43761 228.05308,665.83522 224.12117,665.83518 L 214.37962,665.83518 L 214.37962,688.698 L 205.69838,688.698 z M 214.37962,658.41304 L 224.91641,658.41304 C 229.9528,658.41309 233.38774,657.66205 235.22124,656.1599 C 237.05462,654.65785 237.97134,652.66978 237.97141,650.19568 C 237.97134,648.60528 237.52955,647.1805 236.64602,645.92133 C 235.76237,644.66228 234.53641,643.72347 232.9681,643.10489 C 231.39966,642.48645 228.49487,642.17719 224.25371,642.17712 L 214.37962,642.17712 L 214.37962,658.41304 z"
       id="text2173"
       style="font-size:135.71902466px;font-weight:normal;text-align:start;text-anchor:start;fill:#000000;fill-opacity:1;stroke:none;stroke-opacity:1;font-family:Arial" />
  </g>
</svg>
